<?xml version="1.0" standalone="no"?>
<!DOCTYPE svg PUBLIC "-//W3C//DTD SVG 20010904//EN"
 "http://www.w3.org/TR/2001/REC-SVG-20010904/DTD/svg10.dtd">
<svg version="1.0" xmlns="http://www.w3.org/2000/svg"
 width="612.000000pt" height="612.000000pt" viewBox="0 0 612.000000 612.000000"
 preserveAspectRatio="xMidYMid meet">
<metadata>
Created by potrace 1.14, written by Peter Selinger 2001-2017
</metadata>
<g transform="translate(0.000000,612.000000) scale(0.100000,-0.100000)"
fill="#000000" stroke="none">
<path d="M2850 6117 c-3 -3 -39 -7 -80 -11 -472 -37 -997 -225 -1417 -507 -72
-48 -191 -135 -203 -149 -3 -3 -27 -23 -55 -45 -125 -100 -265 -243 -419 -425
-163 -194 -353 -521 -459 -790 -107 -273 -165 -507 -201 -818 -13 -107 -14
-531 -1 -622 3 -25 10 -81 16 -125 9 -66 24 -150 54 -287 36 -167 139 -445
239 -646 112 -227 309 -518 451 -668 230 -244 366 -361 607 -522 59 -40 109
-72 112 -72 2 0 33 -17 67 -38 142 -86 396 -196 589 -255 608 -188 1263 -183
1860 13 154 50 251 90 391 159 471 233 869 574 1170 1001 152 216 301 513 392
780 49 145 109 403 131 565 21 153 28 581 13 705 -13 100 -17 125 -23 170 -4
36 -31 169 -49 250 -30 133 -112 374 -182 530 -79 177 -250 470 -336 576 -8
10 -39 48 -67 84 -364 461 -887 821 -1459 1005 -167 53 -389 103 -541 120 -30
4 -68 9 -85 11 -41 7 -510 16 -515 11z"/>
</g>
</svg>
